PathFileType	4	(X/Y/Z)	C:/Users/opensim2020/Desktop/walking_exp_matlab/subject02_walking05_straight_04.trc	
DataRate	CameraRate	NumFrames	NumMarkers	Units	OrigDataRate	OrigDataStartFrame	OrigNumFrames	
100.00	100.00	5	42	mm	100.00	2873	220	
Frame#	Time	LFHD			RFHD			LBHD			RBHD			C7			T10			CLAV			STRN			RBAK			LSHO			LUPA			LELB			LFRM			LWRA			LWRB			LFIN			RSHO			RUPA			RELB			RFRM			RWRA			RWRB			RFIN			LASI			RASI			LPSI			RPSI			LTHI			LKNE			LTIB			LANK			LHEE			LTOE			RTHI			RKNE			RTIB			RANK			RHEE			RTOE			*39			*40			*41			
		X1	Y1	Z1	X2	Y2	Z2	X3	Y3	Z3	X4	Y4	Z4	X5	Y5	Z5	X6	Y6	Z6	X7	Y7	Z7	X8	Y8	Z8	X9	Y9	Z9	X10	Y10	Z10	X11	Y11	Z11	X12	Y12	Z12	X13	Y13	Z13	X14	Y14	Z14	X15	Y15	Z15	X16	Y16	Z16	X17	Y17	Z17	X18	Y18	Z18	X19	Y19	Z19	X20	Y20	Z20	X21	Y21	Z21	X22	Y22	Z22	X23	Y23	Z23	X24	Y24	Z24	X25	Y25	Z25	X26	Y26	Z26	X27	Y27	Z27	X28	Y28	Z28	X29	Y29	Z29	X30	Y30	Z30	X31	Y31	Z31	X32	Y32	Z32	X33	Y33	Z33	X34	Y34	Z34	X35	Y35	Z35	X36	Y36	Z36	X37	Y37	Z37	X38	Y38	Z38	X39	Y39	Z39	X40	Y40	Z40	X41	Y41	Z41	X42	Y42	Z42	

138	1.370	1562.42517	-277.41705	1730.62024	1420.32703	-260.08038	1710.70483	1585.09949	-139.23425	1674.62549	1444.84619	-110.31232	1655.82385	1508.15918	-63.57273	1530.33997	1500.92859	-11.96425	1250.71753	1521.27173	-200.29391	1458.55664	1509.71204	-253.23444	1289.04724	1442.15930	-5.99717	1353.33813	1689.00073	-129.44209	1499.39832	1779.16541	-148.60310	1301.77295	1800.01135	-180.90857	1165.38501	1813.21814	-233.92865	1044.02771	1779.41223	-326.20468	944.67657	1815.14551	-284.27267	931.95642	1820.91504	-325.79254	881.23163	1323.59167	-144.13876	1498.10645	1237.60657	-117.18095	1307.78821	1217.18713	-133.98178	1161.81128	1199.95911	-171.97313	1047.11377	1222.02612	-230.79405	925.44269	1186.12451	-186.61870	918.43756	1187.40149	-229.04567	858.52905	1638.20947	-247.18750	993.26117	1383.42664	-253.54803	984.06238	1551.67456	-39.22924	1034.64087	1436.27295	-37.00793	1033.25195	1674.30542	-176.93459	678.76160	1637.05164	-138.30550	478.11295	1630.85522	-80.51028	291.21643	1584.66772	-84.16796	69.51460	1534.16003	-47.17219	43.21432	1590.21631	-241.30595	31.58042	1285.70288	-228.50867	685.12122	1299.15173	-270.20584	487.47287	1308.28882	-164.56300	335.46246	1349.51599	-84.41851	162.40543	1416.47607	-51.85851	116.97060	1292.75989	-186.39221	54.80189	1481.45374	-176.77225	1809.24377	-3357.26099	2845.81689	1033.90320			 
139	1.380	1562.49219	-287.23117	1729.92944	1420.45825	-269.68750	1709.86963	1585.47449	-149.00340	1674.46167	1445.29688	-119.93636	1655.54907	1508.87317	-72.75364	1530.28320	1500.88208	-20.40483	1250.76672	1521.82764	-209.26907	1458.13208	1510.95740	-261.70468	1288.48022	1443.14343	-14.45687	1353.52527	1689.57214	-139.05736	1499.83667	1780.55188	-160.65683	1303.26746	1801.92505	-195.48550	1167.22693	1814.53088	-251.23524	1046.78064	1780.10645	-345.01663	949.32898	1816.35889	-303.77145	935.96161	1821.95898	-346.45175	886.00537	1323.93506	-153.05768	1497.25073	1238.77673	-123.04107	1307.18237	1217.92407	-139.02925	1161.15686	1199.89978	-176.43976	1046.31287	1221.60156	-233.43916	923.91010	1186.17859	-189.10492	917.18921	1186.72424	-231.10365	857.34045	1640.34216	-254.19565	992.50726	1385.12329	-262.89447	983.87640	1550.42126	-46.76155	1034.36548	1435.02710	-45.82162	1033.70654	1674.11133	-182.49638	678.37469	1636.61609	-142.35463	477.92029	1630.42786	-82.85533	291.59604	1584.25208	-84.64114	69.69024	1533.91162	-47.36650	43.33705	1590.38440	-241.44756	31.56711	1286.16162	-240.42889	685.86145	1300.57654	-284.92462	488.11224	1308.69043	-185.66472	331.28229	1348.92542	-113.02332	154.69116	1415.51965	-82.09035	107.46278	1293.29492	-220.53830	52.49839	1481.67114	-186.85005	1808.85034	-3360.35693	2845.15479	1033.73621			 
140	1.390	1562.27795	-297.34268	1729.12170	1420.48499	-279.36691	1708.98962	1585.72986	-158.75633	1674.20935	1445.60706	-129.45377	1655.12512	1509.57666	-81.90190	1530.11511	1500.73120	-28.81538	1250.78711	1522.40662	-218.38353	1457.74634	1512.11670	-270.16516	1287.78027	1444.09619	-22.69596	1353.58667	1689.97656	-148.67223	1500.09534	1781.67200	-172.91000	1304.49133	1803.65527	-209.87369	1168.98853	1816.24438	-268.05707	1049.74121	1780.53015	-363.70889	953.87537	1817.45850	-322.93274	940.01129	1822.55920	-366.72797	890.90393	1324.44702	-161.74197	1496.37146	1240.10864	-128.97096	1306.64539	1218.66394	-144.08426	1160.51086	1200.15845	-180.40337	1045.25854	1221.05945	-236.46667	922.46820	1186.44629	-191.41547	916.09613	1186.00317	-233.23997	856.10773	1642.41968	-261.28464	991.70129	1386.48010	-272.09308	983.59448	1549.16858	-54.43692	1033.95435	1433.87207	-54.59247	1033.99524	1673.79077	-187.94765	677.77393	1636.12476	-146.35718	477.68576	1629.85510	-85.25864	291.94623	1583.89771	-84.97422	70.00183	1533.49219	-47.61799	43.68811	1590.50903	-241.66403	31.50190	1286.71118	-251.94131	686.52563	1302.01685	-299.20282	488.47287	1309.18750	-206.62982	327.27487	1348.44507	-141.85368	147.34360	1414.66748	-112.08607	98.68894	1293.85901	-254.82542	50.80594	1481.61206	-196.89720	1808.26611	-3360.29810	2845.17285	1033.72095			 
141	1.400	1562.27136	-307.35992	1728.34399	1420.54041	-289.11005	1707.95544	1586.00195	-168.52913	1673.83704	1445.94165	-139.08160	1654.58765	1510.14050	-91.08296	1529.92493	1500.37048	-37.28550	1250.69983	1522.82886	-227.36275	1457.06445	1513.12537	-278.56219	1286.95007	1444.32312	-31.25671	1353.31091	1690.35010	-158.24603	1500.20093	1782.67310	-184.89575	1305.60791	1805.28345	-224.05302	1170.58545	1817.60254	-284.66690	1052.49304	1781.34412	-381.76785	958.75574	1818.17126	-341.91779	943.71631	1823.27930	-386.59650	895.70453	1324.51709	-170.93466	1495.32666	1241.14966	-135.03304	1306.17505	1219.25745	-149.42328	1159.85315	1200.56018	-184.00471	1044.27234	1220.60303	-239.51639	920.99359	1186.62903	-194.01537	915.04718	1185.32727	-235.40100	854.82922	1643.60132	-267.81158	990.42926	1387.47144	-281.30658	983.23401	1547.97009	-62.23427	1033.50232	1432.82458	-63.40044	1034.00232	1673.48926	-193.32253	677.21490	1635.64502	-150.38773	477.47064	1629.47485	-87.37189	292.36963	1583.54858	-85.35036	70.29382	1533.04260	-47.90090	44.10590	1590.65710	-241.77541	31.46566	1287.23425	-263.25806	687.04926	1303.52161	-313.14691	488.82330	1309.44092	-227.55150	323.20474	1347.84302	-170.78217	140.40010	1413.48401	-142.35988	89.94202	1294.44043	-289.17813	49.88870	1481.56470	-206.94864	1807.59583	-3360.17822	2845.05884	1033.92651			 
142	1.410	1562.36084	-317.03485	1727.44666	1420.47388	-298.83743	1706.84912	1586.14282	-178.31616	1673.36108	1446.08447	-148.71509	1653.95825	1510.59326	-100.24319	1529.59875	1499.89441	-45.72200	1250.49707	1523.14856	-236.39804	1456.36963	1514.01709	-287.00085	1286.03735	1444.45154	-40.20757	1353.00378	1690.55042	-167.79695	1500.12854	1783.56567	-196.78697	1306.53699	1806.80298	-237.96996	1172.14868	1818.62463	-301.00900	1055.23792	1781.77026	-399.54092	963.37317	1819.21289	-360.23447	947.69733	1823.53088	-406.09311	900.35004	1325.08447	-179.47206	1494.52734	1241.50391	-142.35565	1305.49768	1219.79089	-154.79655	1159.24304	1200.63757	-188.05673	1043.10803	1219.99841	-242.75279	919.61383	1186.64331	-196.75507	914.00830	1184.72705	-237.76018	853.62354	1644.73364	-274.94052	989.31628	1388.16980	-290.44400	982.85529	1546.83020	-70.20265	1032.92676	1431.92090	-72.15202	1033.68640	1673.24744	-198.62653	676.71582	1635.19202	-154.34271	477.24774	1628.79077	-89.82454	292.48520	1583.31458	-85.58205	70.77266	1532.70850	-48.10271	44.64847	1590.78162	-241.97600	31.45562	1287.97485	-274.61298	687.43188	1305.17395	-326.49255	488.86966	1310.03735	-248.30707	319.33936	1347.38611	-199.53911	133.70244	1412.41602	-173.49829	81.79161	1294.99280	-323.29123	49.52563	1481.42566	-216.99689	1806.79834	-3360.24023	2845.07104	1033.82495			 
